# Blender v2.93.0 OBJ File: 'birch_tree.blend'
# www.blender.org
mtllib birch_tree.mtl
o trunk_Cylinder
v -0.001267 0.000000 -0.471246
v -0.001267 3.390399 -0.489276
v 0.426819 0.000000 -0.454332
v 0.327316 3.390399 -0.352820
v 0.463419 0.000000 -0.023384
v 0.463419 3.390399 -0.023384
v 0.327316 0.000000 0.324558
v 0.327316 3.390399 0.306052
v 0.006583 0.000000 0.541426
v -0.001267 3.390399 0.442508
v -0.329850 0.000000 0.314564
v -0.329850 3.390399 0.306052
v -0.557817 0.000000 -0.079491
v -0.465954 3.390399 -0.023384
v -0.372118 0.000000 -0.446473
v -0.329850 3.390399 -0.352820
v -0.001267 1.695389 -0.489276
v 0.327316 1.695389 -0.352820
v 0.463419 1.695389 -0.023384
v 0.327316 1.695389 0.306052
v -0.001267 1.695389 0.442508
v -0.329850 1.695389 0.306052
v -0.465954 1.695389 -0.023384
v -0.329850 1.695389 -0.352820
v 0.327316 0.752068 -0.352820
v 0.463419 0.752068 -0.023384
v 0.327316 0.752068 0.306052
v -0.001267 0.752068 0.442508
v -0.329850 0.752068 0.306052
v -0.465954 0.752068 -0.023384
v -0.329850 0.752068 -0.352820
v -0.001267 0.752068 -0.489276
v 0.310207 0.376034 -0.352820
v 0.463419 0.376034 -0.023384
v 0.327316 0.376034 0.294179
v -0.001267 0.376034 0.424625
v -0.319490 0.376034 0.306052
v -0.465954 0.376034 -0.023384
v -0.329850 0.376034 -0.352820
v -0.001267 0.376034 -0.489276
v 0.327316 0.188017 -0.352820
v 0.463419 0.188017 -0.023384
v 0.327316 0.188017 0.306052
v -0.001267 0.188017 0.455129
v -0.329850 0.188017 0.306052
v -0.465954 0.188017 -0.023384
v -0.338011 0.188017 -0.352820
v -0.001267 0.188017 -0.489276
v 0.425658 0.000000 -0.233522
v 0.232791 0.000000 -0.423752
v -0.168113 0.000000 -0.438940
v -0.421044 0.000000 -0.259318
v -0.430774 0.000000 0.086561
v 0.124202 0.000000 0.421756
v -0.117776 0.000000 0.417374
v 0.094125 0.000000 0.454843
v -0.008055 0.139140 0.497468
v -0.081051 0.000000 0.467786
vt 1.000000 0.750028
vt 1.000000 1.000000
vt 0.875000 1.000000
vt 0.875000 0.750028
vt 0.750000 1.000000
vt 0.750000 0.750028
vt 0.625000 1.000000
vt 0.625000 0.750028
vt 0.500000 1.000000
vt 0.500000 0.750028
vt 0.375000 1.000000
vt 0.375000 0.750028
vt 0.250000 1.000000
vt 0.250000 0.750028
vt 0.419706 0.419706
vt 0.250000 0.490000
vt 0.080294 0.419706
vt 0.010000 0.250000
vt 0.080294 0.080294
vt 0.250000 0.010000
vt 0.419706 0.080294
vt 0.490000 0.250000
vt 0.125000 1.000000
vt 0.125000 0.750028
vt 0.000000 1.000000
vt 0.000000 0.750028
vt 0.750000 0.490000
vt 0.849615 0.448738
vt 0.919706 0.419706
vt 0.949745 0.347184
vt 0.990000 0.250000
vt 0.919706 0.080294
vt 0.809221 0.034530
vt 0.794077 0.028257
vt 0.750000 0.010000
vt 0.707596 0.027564
vt 0.689826 0.034925
vt 0.580294 0.080294
vt 0.539621 0.178487
vt 0.510000 0.250000
vt 0.549095 0.344384
vt 0.580294 0.419706
vt 0.669869 0.456809
vt 0.125000 0.610911
vt 0.000000 0.610911
vt 0.250000 0.610911
vt 0.375000 0.610911
vt 0.500000 0.610911
vt 0.625000 0.610911
vt 0.750000 0.610911
vt 0.875000 0.610911
vt 1.000000 0.610911
vt 1.000000 0.555456
vt 0.875000 0.555456
vt 0.750000 0.555456
vt 0.625000 0.555456
vt 0.500000 0.555456
vt 0.375000 0.555456
vt 0.250000 0.555456
vt 0.125000 0.555456
vt 0.000000 0.555456
vt 0.125000 0.527728
vt 0.000000 0.527728
vt 0.250000 0.527728
vt 0.375000 0.527728
vt 0.500000 0.527728
vt 0.625000 0.527728
vt 0.750000 0.527728
vt 0.875000 0.527728
vt 1.000000 0.527728
vt 1.000000 0.500000
vt 0.926627 0.500000
vt 0.875000 0.500000
vt 0.821583 0.500000
vt 0.750000 0.500000
vt 0.625000 0.500000
vt 0.543620 0.500000
vt 0.500000 0.500000
vt 0.500000 0.518386
vt 0.468767 0.500000
vt 0.375000 0.500000
vt 0.302674 0.500000
vt 0.250000 0.500000
vt 0.180480 0.500000
vt 0.125000 0.500000
vt 0.059022 0.500000
vt 0.000000 0.500000
vt 0.532466 0.500000
vt 0.455678 0.500000
vn 0.3835 0.0000 -0.9235
vn 0.9242 0.0000 -0.3818
vn 0.9242 0.0000 0.3818
vn 0.3835 0.0000 0.9235
vn -0.3835 0.0000 0.9235
vn -0.9242 0.0000 0.3818
vn 0.0000 1.0000 -0.0000
vn -0.9242 0.0000 -0.3818
vn -0.3835 0.0000 -0.9235
vn 0.0000 -1.0000 0.0000
vn 0.3922 -0.0089 -0.9198
vn 0.9154 -0.0208 -0.4020
vn 0.9217 -0.0061 0.3878
vn 0.3760 -0.0366 0.9259
vn -0.3667 -0.0272 0.9300
vn -0.9190 -0.0127 0.3941
vn -0.3795 0.0082 -0.9252
vn -0.9280 0.0201 -0.3719
vn -0.9188 0.0253 0.3940
vn -0.3810 0.0852 0.9207
vn 0.3893 0.1031 0.9153
vn 0.9217 0.0122 0.3878
vn 0.9148 0.0416 -0.4017
vn 0.3922 0.0178 -0.9197
vn 0.3103 0.0555 -0.9490
vn 0.8849 0.4658 0.0047
vn 0.9277 0.0183 0.3728
vn 0.4180 0.1038 0.9025
vn -0.6338 0.1716 0.7542
vn -0.9196 0.0371 0.3910
vn -0.6916 0.4949 -0.5260
vn 0.0331 0.4408 -0.8970
vn 0.9411 0.1499 -0.3032
vn -0.1419 0.4111 -0.9005
vn -0.3176 0.0281 -0.9478
vn -0.9263 0.2887 -0.2422
vn -0.7778 0.2024 0.5951
vn -0.9081 0.2257 -0.3527
vn 0.7211 0.3650 0.5889
vn -0.4215 0.0602 0.9048
vn -0.8072 0.3733 0.4573
vn 0.6738 0.2861 0.6813
usemtl brown
s off
f 17/1/1 2/2/1 4/3/1 18/4/1
f 18/4/2 4/3/2 6/5/2 19/6/2
f 19/6/3 6/5/3 8/7/3 20/8/3
f 20/8/4 8/7/4 10/9/4 21/10/4
f 21/10/5 10/9/5 12/11/5 22/12/5
f 22/12/6 12/11/6 14/13/6 23/14/6
f 4/15/7 2/16/7 16/17/7 14/18/7 12/19/7 10/20/7 8/21/7 6/22/7
f 23/14/8 14/13/8 16/23/8 24/24/8
f 24/24/9 16/23/9 2/25/9 17/26/9
f 1/27/10 50/28/10 3/29/10 49/30/10 5/31/10 7/32/10 54/33/10 56/34/10 9/35/10 58/36/10 55/37/10 11/38/10 53/39/10 13/40/10 52/41/10 15/42/10 51/43/10
f 31/44/9 24/24/9 17/26/9 32/45/9
f 30/46/8 23/14/8 24/24/8 31/44/8
f 29/47/6 22/12/6 23/14/6 30/46/6
f 28/48/5 21/10/5 22/12/5 29/47/5
f 27/49/4 20/8/4 21/10/4 28/48/4
f 26/50/3 19/6/3 20/8/3 27/49/3
f 25/51/2 18/4/2 19/6/2 26/50/2
f 32/52/1 17/1/1 18/4/1 25/51/1
f 40/53/11 32/52/11 25/51/11 33/54/11
f 33/54/12 25/51/12 26/50/12 34/55/12
f 34/55/13 26/50/13 27/49/13 35/56/13
f 35/56/14 27/49/14 28/48/14 36/57/14
f 36/57/15 28/48/15 29/47/15 37/58/15
f 37/58/16 29/47/16 30/46/16 38/59/16
f 38/59/8 30/46/8 31/44/8 39/60/8
f 39/60/9 31/44/9 32/45/9 40/61/9
f 47/62/17 39/60/17 40/61/17 48/63/17
f 46/64/18 38/59/18 39/60/18 47/62/18
f 45/65/19 37/58/19 38/59/19 46/64/19
f 44/66/20 36/57/20 37/58/20 45/65/20
f 43/67/21 35/56/21 36/57/21 44/66/21
f 42/68/22 34/55/22 35/56/22 43/67/22
f 41/69/23 33/54/23 34/55/23 42/68/23
f 48/70/24 40/53/24 33/54/24 41/69/24
f 1/71/25 48/70/25 41/69/25 50/72/25
f 3/73/26 41/69/26 49/74/26
f 5/75/27 42/68/27 43/67/27 7/76/27
f 7/76/28 43/67/28 44/66/28 54/77/28
f 9/78/29 57/79/29 58/80/29
f 11/81/30 45/65/30 46/64/30 53/82/30
f 13/83/31 46/64/31 52/84/31
f 15/85/32 47/62/32 51/86/32
f 49/74/33 41/69/33 42/68/33 5/75/33
f 50/72/34 41/69/34 3/73/34
f 51/86/35 47/62/35 48/63/35 1/87/35
f 52/84/36 47/62/36 15/85/36
f 53/82/37 46/64/37 13/83/37
f 52/84/38 46/64/38 47/62/38
f 54/77/39 44/66/39 57/79/39 56/88/39
f 55/89/40 44/66/40 45/65/40 11/81/40
f 58/80/41 57/79/41 44/66/41 55/89/41
f 56/88/42 57/79/42 9/78/42
o crown_Icosphere
v 0.042526 2.126961 -0.045063
v 1.183793 3.508912 0.861814
v -0.393391 3.508911 1.422308
v -1.368155 3.508922 -0.045063
v -0.393391 3.508911 -1.512433
v 1.183793 3.508912 -0.951939
v 0.478443 5.745010 1.422308
v -1.098741 5.745009 0.861814
v -1.098741 5.745009 -0.951939
v 0.478443 5.745010 -1.512433
v 1.453207 5.745000 -0.045063
v 0.042526 7.126961 -0.045063
v -0.213698 2.500324 0.817429
v 0.713341 2.500325 0.487982
v 0.457120 3.312617 1.350483
v 1.384160 3.312621 -0.045063
v 0.713341 2.500325 -0.578107
v -0.786651 2.500331 -0.045063
v -1.042881 3.312620 0.817432
v -0.213698 2.500324 -0.907554
v -1.042881 3.312620 -0.907557
v 0.457120 3.312617 -1.440608
v 1.542526 4.626961 0.487984
v 1.542526 4.626961 -0.578109
v 0.042526 4.626961 1.679937
v 0.969576 4.626961 1.350491
v -1.457474 4.626961 0.487984
v -0.884524 4.626961 1.350491
v -0.884524 4.626961 -1.440616
v -1.457474 4.626961 -0.578109
v 0.969576 4.626961 -1.440616
v 0.042526 4.626961 -1.770063
v 1.127932 5.941301 0.817432
v -0.372069 5.941305 1.350483
v -1.299109 5.941300 -0.045063
v -0.372069 5.941305 -1.440608
v 1.127932 5.941301 -0.907557
v 0.298749 6.753597 0.817429
v 0.871702 6.753590 -0.045063
v -0.628289 6.753596 0.487982
v -0.628289 6.753596 -0.578107
v 0.298749 6.753597 -0.907554
vt 0.181819 0.000000
vt 0.227273 0.078731
vt 0.136365 0.078731
vt 0.272728 0.157461
vt 0.318182 0.078731
vt 0.363637 0.157461
vt 0.909091 0.000000
vt 0.954545 0.078731
vt 0.863636 0.078731
vt 0.727273 0.000000
vt 0.772727 0.078731
vt 0.681818 0.078731
vt 0.545455 0.000000
vt 0.590909 0.078731
vt 0.500000 0.078731
vt 0.318182 0.236191
vt 0.090910 0.157461
vt 0.181819 0.157461
vt 0.136365 0.236191
vt 0.818182 0.157461
vt 0.909091 0.157461
vt 0.863636 0.236191
vt 0.636364 0.157461
vt 0.727273 0.157461
vt 0.681818 0.236191
vt 0.454546 0.157461
vt 0.545455 0.157461
vt 0.500000 0.236191
vt 0.227273 0.236191
vt 0.045455 0.236191
vt 0.772727 0.236191
vt 0.590909 0.236191
vt 0.409092 0.236191
vt 0.181819 0.314921
vt 0.272728 0.314921
vt 0.227273 0.393651
vt 0.000000 0.314921
vt 0.090910 0.314921
vt 0.045455 0.393651
vt 0.727273 0.314921
vt 0.818182 0.314921
vt 0.772727 0.393651
vt 0.545455 0.314921
vt 0.636364 0.314921
vt 0.590909 0.393651
vt 0.363637 0.314921
vt 0.454546 0.314921
vt 0.409092 0.393651
vt 0.500000 0.393651
vt 0.454546 0.472382
vt 0.681818 0.393651
vt 0.636364 0.472382
vt 0.863636 0.393651
vt 0.818182 0.472382
vt 0.909091 0.314921
vt 0.136365 0.393651
vt 0.090910 0.472382
vt 0.318182 0.393651
vt 0.272728 0.472382
vt 0.954545 0.236191
vt 1.000000 0.157461
vt 0.409092 0.078731
vt 0.363637 0.000000
vn 0.1530 -0.8895 0.4305
vn 0.8226 -0.4904 0.2879
vn -0.3961 -0.8797 0.2631
vn -0.3961 -0.8797 -0.2631
vn 0.1530 -0.8895 -0.4305
vn 0.9422 -0.2170 0.2552
vn 0.0279 -0.2348 0.9717
vn -0.9286 -0.2175 0.3007
vn -0.6261 -0.2271 -0.7460
vn 0.5850 -0.2281 -0.7783
vn 0.8302 -0.0820 0.5515
vn -0.3336 -0.0862 0.9388
vn -0.9968 -0.0796 0.0000
vn -0.3336 -0.0862 -0.9388
vn 0.8302 -0.0820 -0.5515
vn 0.4990 0.5094 0.7011
vn -0.5713 0.5060 0.6462
vn -0.8226 0.4904 -0.2879
vn 0.0480 0.5200 -0.8528
vn 0.8473 0.4885 -0.2084
vn 0.3961 0.8797 -0.2631
vn 0.6346 0.6478 -0.4215
vn 0.4990 0.5094 -0.7011
vn -0.1530 0.8895 -0.4305
vn -0.2495 0.6669 -0.7022
vn -0.5713 0.5060 -0.6462
vn -0.4863 0.8738 0.0000
vn -0.7711 0.6368 0.0000
vn -0.8226 0.4904 0.2879
vn -0.1530 0.8895 0.4305
vn -0.2495 0.6669 0.7022
vn 0.0480 0.5200 0.8528
vn 0.3961 0.8797 0.2631
vn 0.6346 0.6478 0.4215
vn 0.8473 0.4885 0.2084
vn 0.9286 0.2175 -0.3007
vn 0.8266 0.1231 -0.5491
vn 0.6261 0.2271 -0.7460
vn -0.0279 0.2348 -0.9717
vn -0.3320 0.1295 -0.9343
vn -0.5850 0.2281 -0.7783
vn -0.9422 0.2170 -0.2552
vn -0.9928 0.1196 0.0000
vn -0.9422 0.2170 0.2552
vn -0.5850 0.2281 0.7783
vn -0.3320 0.1295 0.9343
vn -0.0279 0.2348 0.9717
vn 0.6261 0.2271 0.7460
vn 0.8266 0.1231 0.5491
vn 0.9286 0.2175 0.3007
vn 0.3336 0.0862 -0.9388
vn 0.3320 -0.1295 -0.9343
vn 0.0279 -0.2348 -0.9717
vn -0.8302 0.0820 -0.5515
vn -0.8266 -0.1231 -0.5491
vn -0.9286 -0.2175 -0.3007
vn -0.8302 0.0820 0.5515
vn -0.8266 -0.1231 0.5491
vn -0.6261 -0.2271 0.7460
vn 0.3336 0.0862 0.9388
vn 0.3320 -0.1295 0.9343
vn 0.5850 -0.2281 0.7783
vn 0.9968 0.0796 0.0000
vn 0.9928 -0.1196 0.0000
vn 0.9422 -0.2170 -0.2552
vn 0.5713 -0.5060 -0.6462
vn 0.2495 -0.6669 -0.7022
vn -0.0480 -0.5200 -0.8528
vn -0.4990 -0.5094 -0.7011
vn -0.6346 -0.6478 -0.4215
vn -0.8473 -0.4885 -0.2084
vn -0.8473 -0.4885 0.2084
vn -0.6346 -0.6478 0.4215
vn -0.4990 -0.5094 0.7011
vn 0.8226 -0.4904 -0.2879
vn 0.7711 -0.6368 0.0000
vn 0.4863 -0.8738 0.0000
vn -0.0480 -0.5200 0.8528
vn 0.2495 -0.6669 0.7022
vn 0.5713 -0.5060 0.6462
usemtl green
s off
f 59/90/43 72/91/43 71/92/43
f 60/93/44 72/94/44 74/95/44
f 59/96/45 71/97/45 76/98/45
f 59/99/46 76/100/46 78/101/46
f 59/102/47 78/103/47 75/104/47
f 60/93/48 74/95/48 81/105/48
f 61/106/49 73/107/49 83/108/49
f 62/109/50 77/110/50 85/111/50
f 63/112/51 79/113/51 87/114/51
f 64/115/52 80/116/52 89/117/52
f 60/93/53 81/105/53 84/118/53
f 61/106/54 83/108/54 86/119/54
f 62/109/55 85/111/55 88/120/55
f 63/112/56 87/114/56 90/121/56
f 64/115/57 89/117/57 82/122/57
f 65/123/58 91/124/58 96/125/58
f 66/126/59 92/127/59 98/128/59
f 67/129/60 93/130/60 99/131/60
f 68/132/61 94/133/61 100/134/61
f 69/135/62 95/136/62 97/137/62
f 97/137/63 100/138/63 70/139/63
f 97/137/64 95/136/64 100/138/64
f 95/136/65 68/132/65 100/138/65
f 100/134/66 99/140/66 70/141/66
f 100/134/67 94/133/67 99/140/67
f 94/133/68 67/129/68 99/140/68
f 99/131/69 98/142/69 70/143/69
f 99/131/70 93/130/70 98/142/70
f 93/130/71 66/144/71 98/142/71
f 98/128/72 96/145/72 70/146/72
f 98/128/73 92/127/73 96/145/73
f 92/127/74 65/123/74 96/145/74
f 96/125/75 97/147/75 70/148/75
f 96/125/76 91/124/76 97/147/76
f 91/124/77 69/135/77 97/147/77
f 82/122/78 95/136/78 69/135/78
f 82/122/79 89/117/79 95/136/79
f 89/117/80 68/132/80 95/136/80
f 90/121/81 94/133/81 68/132/81
f 90/121/82 87/114/82 94/133/82
f 87/114/83 67/129/83 94/133/83
f 88/120/84 93/130/84 67/129/84
f 88/120/85 85/111/85 93/130/85
f 85/111/86 66/144/86 93/130/86
f 86/119/87 92/127/87 66/126/87
f 86/119/88 83/108/88 92/127/88
f 83/108/89 65/123/89 92/127/89
f 84/118/90 91/124/90 65/123/90
f 84/118/91 81/105/91 91/124/91
f 81/105/92 69/135/92 91/124/92
f 89/117/93 90/121/93 68/132/93
f 89/117/94 80/116/94 90/121/94
f 80/116/95 63/112/95 90/121/95
f 87/114/96 88/120/96 67/129/96
f 87/114/97 79/113/97 88/120/97
f 79/113/98 62/109/98 88/120/98
f 85/111/99 86/149/99 66/144/99
f 85/111/100 77/110/100 86/149/100
f 77/110/101 61/150/101 86/149/101
f 83/108/102 84/118/102 65/123/102
f 83/108/103 73/107/103 84/118/103
f 73/107/104 60/93/104 84/118/104
f 81/105/105 82/122/105 69/135/105
f 81/105/106 74/95/106 82/122/106
f 74/95/107 64/115/107 82/122/107
f 75/104/108 80/116/108 64/115/108
f 75/104/109 78/103/109 80/116/109
f 78/103/110 63/112/110 80/116/110
f 78/101/111 79/113/111 63/112/111
f 78/101/112 76/100/112 79/113/112
f 76/100/113 62/109/113 79/113/113
f 76/98/114 77/110/114 62/109/114
f 76/98/115 71/97/115 77/110/115
f 71/97/116 61/150/116 77/110/116
f 74/95/117 75/151/117 64/115/117
f 74/95/118 72/94/118 75/151/118
f 72/94/119 59/152/119 75/151/119
f 71/92/120 73/107/120 61/106/120
f 71/92/121 72/91/121 73/107/121
f 72/91/122 60/93/122 73/107/122
o branch1_Cylinder.001
v -0.274468 1.992629 -0.139394
v -0.678480 2.404871 -0.303194
v -0.330723 1.956097 -0.092580
v -0.734735 2.368340 -0.256380
v -0.372108 1.897896 -0.136982
v -0.776120 2.310138 -0.300782
v -0.341430 1.898457 -0.211237
v -0.745442 2.310699 -0.375037
v -0.281085 1.957005 -0.212727
v -0.685097 2.369247 -0.376527
vt 1.000000 0.500000
vt 1.000000 1.000000
vt 0.800000 1.000000
vt 0.800000 0.500000
vt 0.600000 1.000000
vt 0.600000 0.500000
vt 0.400000 1.000000
vt 0.400000 0.500000
vt 0.478254 0.324164
vt 0.250000 0.490000
vt 0.021746 0.324164
vt 0.108932 0.055836
vt 0.391068 0.055836
vt 0.200000 1.000000
vt 0.200000 0.500000
vt 0.000000 1.000000
vt 0.000000 0.500000
vt 0.750000 0.490000
vt 0.978254 0.324164
vt 0.891068 0.055836
vt 0.608932 0.055836
vt 0.521746 0.324164
vn 0.2713 0.5731 0.7733
vn -0.5517 -0.2212 0.8042
vn -0.6331 -0.7266 -0.2670
vn -0.6734 0.6871 -0.2730
vn 0.1779 -0.2078 -0.9619
vn 0.7349 0.5816 -0.3488
vn 0.6734 -0.6871 0.2730
usemtl graybrown
s off
f 101/153/123 102/154/123 104/155/123 103/156/123
f 103/156/124 104/155/124 106/157/124 105/158/124
f 105/158/125 106/157/125 108/159/125 107/160/125
f 104/161/126 102/162/126 110/163/126 108/164/126 106/165/126
f 107/160/127 108/159/127 110/166/127 109/167/127
f 109/167/128 110/166/128 102/168/128 101/169/128
f 101/170/129 103/171/129 105/172/129 107/173/129 109/174/129
o branch2_Cylinder.002
v 0.185420 1.792617 -0.215356
v 0.343615 1.985314 -0.528153
v 0.152203 1.765526 -0.248844
v 0.310398 1.958223 -0.561642
v 0.178612 1.722320 -0.262105
v 0.336807 1.915017 -0.574902
v 0.228150 1.722708 -0.236812
v 0.386345 1.915405 -0.549609
v 0.232358 1.766154 -0.207919
v 0.390553 1.958851 -0.520717
vt 1.000000 0.500000
vt 1.000000 1.000000
vt 0.800000 1.000000
vt 0.800000 0.500000
vt 0.600000 1.000000
vt 0.600000 0.500000
vt 0.400000 1.000000
vt 0.400000 0.500000
vt 0.478254 0.324164
vt 0.250000 0.490000
vt 0.021746 0.324164
vt 0.108932 0.055836
vt 0.391068 0.055836
vt 0.200000 1.000000
vt 0.200000 0.500000
vt 0.000000 1.000000
vt 0.000000 0.500000
vt 0.750000 0.490000
vt 0.978254 0.324164
vt 0.891068 0.055836
vt 0.608932 0.055836
vt 0.521746 0.324164
vn -0.6861 0.7210 0.0972
vn -0.7675 -0.2943 -0.5695
vn 0.2245 -0.8763 -0.4263
vn 0.3955 0.4817 -0.7820
vn 0.9149 -0.2811 0.2895
vn 0.3146 0.7289 0.6081
vn -0.3955 -0.4817 0.7820
usemtl graybrown
s off
f 111/175/130 112/176/130 114/177/130 113/178/130
f 113/178/131 114/177/131 116/179/131 115/180/131
f 115/180/132 116/179/132 118/181/132 117/182/132
f 114/183/133 112/184/133 120/185/133 118/186/133 116/187/133
f 117/182/134 118/181/134 120/188/134 119/189/134
f 119/189/135 120/188/135 112/190/135 111/191/135
f 111/192/136 113/193/136 115/194/136 117/195/136 119/196/136
