# Blender v2.93.0 OBJ File: 'player.blend'
# www.blender.org
mtllib player.mtl
o Icosphere_Icosphere.001
v 1.423398 0.004017 0.552827
v -0.098168 0.004017 0.876688
v -1.004378 0.004021 -0.002333
v -0.098168 0.004017 -0.903539
v 1.423398 0.004017 -0.574684
v 0.628360 0.978215 0.848316
v -0.685960 0.978215 0.523392
v -0.685960 0.978215 -0.528059
v 0.628360 0.978215 -0.852983
v 1.358310 0.978211 -0.002333
v 0.265096 1.530995 -0.002333
v 0.610592 0.005258 0.835050
v 2.120148 0.067088 -0.002333
v -0.733316 0.005259 0.497664
v -0.733316 0.005259 -0.502330
v 0.610592 0.005258 -0.861901
v 1.662616 0.530995 0.306679
v 1.662616 0.530995 -0.311346
v 0.265096 0.530995 0.997667
v 1.037638 0.530995 0.806683
v -0.984904 0.530995 0.306679
v -0.507446 0.530995 0.806683
v -0.507446 0.530995 -0.811350
v -0.984904 0.530995 -0.311346
v 1.037638 0.530995 -0.811350
v 0.265096 0.530995 -1.002333
v 1.087248 1.056731 0.497664
v -0.080399 1.056733 0.806678
v -0.852932 1.056731 -0.002333
v -0.080399 1.056733 -0.811345
v 1.087248 1.056731 -0.502330
v 0.478616 1.381649 0.497662
v 0.873723 1.381647 -0.002333
v -0.293655 1.381649 0.312014
v -0.293916 1.381649 -0.311345
v 0.478616 1.381649 -0.502329
v 0.382343 0.039521 -0.002333
v 1.006191 0.018164 -0.002333
v -0.321648 0.063622 -0.002333
v 1.990064 0.143172 -0.083395
v 1.920771 0.004912 -0.173877
v 1.985870 0.148140 0.081648
v 1.918664 0.004854 0.178856
v 2.003046 0.022077 0.130219
v 2.060288 0.157749 0.065494
v 2.065706 0.158399 -0.066389
v 2.004166 0.022162 -0.128752
v 2.000009 0.006664 -0.002333
v 1.930108 0.007328 -0.002333
v 1.643945 0.482004 0.333037
v 1.700762 0.487817 0.288155
v 1.703048 0.483477 -0.292545
v 1.648703 0.479707 -0.342025
v 1.602246 0.619717 0.245375
v 1.602640 0.619137 -0.250443
v 1.545016 0.530995 -0.405430
v 1.565398 0.619827 0.338949
v 1.566272 0.619028 -0.343326
v 1.547863 0.530995 0.398486
v 1.556741 0.579553 -0.371174
v 1.509783 0.530995 -0.433618
v 1.526510 0.450806 -0.431185
v 1.556832 0.576431 0.368034
v 1.525139 0.434786 0.426664
v 1.516089 0.530995 0.423906
v 1.672094 0.004437 0.343767
v 1.850610 0.278942 0.175808
v 1.642984 0.004412 -0.375694
v 1.851944 0.277362 -0.179546
vt 0.090910 0.157461
vt 0.181819 0.157461
vt 0.136365 0.236191
vt 0.818182 0.157461
vt 0.909091 0.157461
vt 0.863636 0.236191
vt 0.636364 0.157461
vt 0.727273 0.157461
vt 0.681818 0.236191
vt 0.454546 0.157461
vt 0.545455 0.157461
vt 0.500000 0.236191
vt 0.272728 0.157461
vt 0.296239 0.221817
vt 0.296869 0.236191
vt 0.227273 0.236191
vt 0.045455 0.236191
vt 0.772727 0.236191
vt 0.590909 0.236191
vt 0.431323 0.236191
vt 0.430511 0.224211
vt 0.181819 0.314921
vt 0.272728 0.314921
vt 0.227273 0.393651
vt 0.000000 0.314921
vt 0.090910 0.314921
vt 0.045455 0.393651
vt 0.727273 0.314921
vt 0.818182 0.314921
vt 0.772727 0.393651
vt 0.545455 0.314921
vt 0.636364 0.314921
vt 0.590909 0.393651
vt 0.363637 0.314921
vt 0.454546 0.314921
vt 0.409092 0.393651
vt 0.500000 0.393651
vt 0.454546 0.472382
vt 0.681818 0.393651
vt 0.636364 0.472382
vt 0.863636 0.393651
vt 0.818182 0.472382
vt 0.909091 0.314921
vt 0.136365 0.393651
vt 0.090910 0.472382
vt 0.318182 0.393651
vt 0.272728 0.472382
vt 0.306100 0.242995
vt 0.310502 0.249494
vt 0.954545 0.236191
vt 1.000000 0.157461
vt 0.327200 0.251810
vt 0.400133 0.251708
vt 0.416703 0.249374
vt 0.420960 0.243463
vt 0.426198 0.236191
vt 0.301491 0.236191
vt 0.363637 0.157461
vt 0.382594 0.157461
vt 0.373059 0.173781
vt 0.371771 0.157461
vt 0.375561 0.178114
vt 0.351284 0.178858
vt 0.353660 0.174742
vt 0.338459 0.157461
vt 0.314635 0.230046
vt 0.320907 0.231471
vt 0.318182 0.236191
vt 0.406326 0.231401
vt 0.411735 0.231612
vt 0.409092 0.236191
vt 0.303479 0.157461
vt 0.337433 0.202848
vt 0.389704 0.202611
vt 0.561972 0.157461
vt 0.438338 0.157461
vt 0.701489 0.157461
vt 0.375613 0.157461
vt 0.333967 0.157461
vt 0.389060 0.157461
vt 0.425635 0.157461
vn 0.0571 -0.2606 0.9638
vn -0.8532 -0.2400 0.4631
vn -0.5163 -0.2581 -0.8166
vn 0.3277 -0.1769 -0.9281
vn 0.6227 0.0809 0.7783
vn -0.2396 -0.0573 0.9692
vn -0.9993 0.0369 0.0000
vn -0.2400 -0.0166 -0.9706
vn 0.6212 0.1060 -0.7765
vn 0.3653 0.6842 0.6312
vn -0.3780 0.6906 0.6166
vn -0.5981 0.7428 -0.3009
vn 0.0293 0.6619 -0.7490
vn 0.6241 0.7496 -0.2206
vn 0.2342 0.9544 -0.1851
vn 0.4414 0.8268 -0.3488
vn 0.3653 0.6842 -0.6312
vn -0.0781 0.9456 -0.3158
vn -0.1438 0.8006 -0.5817
vn -0.3766 0.6950 -0.6125
vn -0.2582 0.9661 0.0001
vn -0.5024 0.8646 0.0002
vn -0.5999 0.7412 0.3012
vn -0.0757 0.9461 0.3149
vn -0.1407 0.7986 0.5852
vn 0.0293 0.6619 0.7490
vn 0.2342 0.9544 0.1851
vn 0.4414 0.8268 0.3488
vn 0.6241 0.7496 0.2206
vn 0.5128 0.3985 -0.7604
vn -0.0188 0.3304 -0.9436
vn -0.2356 0.1913 -0.9528
vn -0.4337 0.3523 -0.8294
vn -0.8507 0.4082 -0.3312
vn -0.9699 0.2435 0.0000
vn -0.8507 0.4082 0.3312
vn -0.4337 0.3523 0.8294
vn -0.2356 0.1913 0.9528
vn -0.0188 0.3304 0.9436
vn 0.5128 0.3985 0.7604
vn 0.5800 0.3714 0.7250
vn 0.2380 0.1282 -0.9628
vn 0.2388 -0.1011 -0.9658
vn 0.0576 -0.2222 -0.9733
vn -0.7154 0.1472 -0.6831
vn -0.7200 -0.0948 -0.6875
vn -0.8532 -0.2400 -0.4631
vn -0.7154 0.1472 0.6831
vn -0.7200 -0.0948 0.6875
vn -0.4933 -0.2734 0.8258
vn 0.2380 0.1282 0.9628
vn 0.2376 -0.1411 0.9611
vn 0.3204 -0.2104 0.9236
vn 0.8268 0.5626 0.0000
vn 0.6967 0.6631 -0.2736
vn 0.6967 0.6631 0.2736
vn 0.5800 0.3714 -0.7250
vn 0.7415 -0.0281 -0.6703
vn 0.4473 -0.8894 -0.0943
vn -0.1631 0.9864 -0.0196
vn 0.1505 0.3732 0.9154
vn 0.7495 -0.0004 0.6620
vn 0.8466 0.5310 0.0374
vn 0.1347 0.3615 -0.9226
vn 0.4474 -0.8895 0.0932
vn 0.5961 0.1922 0.7795
vn 0.6404 0.2588 -0.7231
vn 0.6394 0.0531 0.7671
vn 0.7993 0.6010 -0.0006
vn -0.0342 -0.9989 -0.0316
vn -0.0342 -0.9977 -0.0590
vn -0.0342 -0.9978 0.0575
vn -0.0006 -0.9992 0.0397
vn -0.0006 -0.9992 -0.0407
vn -0.0116 -0.9998 -0.0166
vn -0.0082 -0.9998 0.0188
vn -0.0342 -0.9989 0.0307
vn -0.0082 -0.9998 -0.0193
vn 0.0869 -0.9952 -0.0446
vn 0.0869 -0.9952 0.0446
vn 0.0470 -0.9959 0.0775
vn 0.0452 -0.9958 -0.0790
vn 0.6056 0.1367 -0.7840
vn -0.0094 -0.9925 -0.1220
vn -0.0117 -0.9998 0.0163
vn 0.1996 -0.9799 -0.0008
vn 0.2011 -0.9796 0.0029
vn -0.0094 -0.9932 0.1157
vn 0.4038 0.3763 0.8339
vn 0.3843 0.3630 -0.8489
vn 0.5679 0.1469 -0.8099
vn 0.5951 0.1022 0.7971
vn 0.5904 0.1554 0.7920
vn 0.6960 0.7180 -0.0016
vn 0.6619 0.0469 -0.7481
usemtl brown
s off
f 2/1/1 12/2/1 19/3/1
f 3/4/2 14/5/2 21/6/2
f 4/7/3 15/8/3 23/9/3
f 5/10/4 16/11/4 25/12/4
f 1/13/5 64/14/5 65/15/5 20/16/5
f 2/1/6 19/3/6 22/17/6
f 3/4/7 21/6/7 24/18/7
f 4/7/8 23/9/8 26/19/8
f 5/10/9 25/12/9 61/20/9 62/21/9
f 6/22/10 27/23/10 32/24/10
f 7/25/11 28/26/11 34/27/11
f 8/28/12 29/29/12 35/30/12
f 9/31/13 30/32/13 36/33/13
f 10/34/14 31/35/14 33/36/14
f 33/36/15 36/37/15 11/38/15
f 33/36/16 31/35/16 36/37/16
f 31/35/17 9/31/17 36/37/17
f 36/33/18 35/39/18 11/40/18
f 36/33/19 30/32/19 35/39/19
f 30/32/20 8/28/20 35/39/20
f 35/30/21 34/41/21 11/42/21
f 35/30/22 29/29/22 34/41/22
f 29/29/23 7/43/23 34/41/23
f 34/27/24 32/44/24 11/45/24
f 34/27/25 28/26/25 32/44/25
f 28/26/26 6/22/26 32/44/26
f 32/24/27 33/46/27 11/47/27
f 32/24/28 27/23/28 33/46/28
f 27/23/29 10/34/29 33/46/29
f 25/12/30 9/31/30 31/35/30
f 26/19/31 30/32/31 9/31/31
f 26/19/32 23/9/32 30/32/32
f 23/9/33 8/28/33 30/32/33
f 24/18/34 29/29/34 8/28/34
f 24/18/35 21/6/35 29/29/35
f 21/6/36 7/43/36 29/29/36
f 22/17/37 28/26/37 7/25/37
f 22/17/38 19/3/38 28/26/38
f 19/3/39 6/22/39 28/26/39
f 20/16/40 27/23/40 6/22/40
f 20/16/41 65/15/41 63/48/41 57/49/41 27/23/41
f 25/12/42 26/19/42 9/31/42
f 25/12/43 16/11/43 26/19/43
f 16/11/44 4/7/44 26/19/44
f 23/9/45 24/18/45 8/28/45
f 23/9/46 15/8/46 24/18/46
f 15/8/47 3/4/47 24/18/47
f 21/6/48 22/50/48 7/43/48
f 21/6/49 14/5/49 22/50/49
f 14/5/50 2/51/50 22/50/50
f 19/3/51 20/16/51 6/22/51
f 19/3/52 12/2/52 20/16/52
f 12/2/53 1/13/53 20/16/53
f 54/52/54 55/53/54 10/34/54
f 55/53/55 58/54/55 31/35/55 10/34/55
f 57/49/56 54/52/56 10/34/56 27/23/56
f 58/54/57 60/55/57 61/20/57 25/12/57 31/35/57
usemtl pink
f 62/21/9 61/20/9 56/56/9
f 61/20/57 60/55/57 56/56/57
f 63/48/41 65/15/41 59/57/41
f 65/15/5 64/14/5 59/57/5
usemtl black
f 13/58/58 47/59/58 46/60/58
f 13/58/59 48/61/59 47/59/59
f 40/62/60 42/63/60 45/64/60 46/60/60
f 42/63/61 44/65/61 45/64/61
f 45/64/62 44/65/62 13/58/62
f 46/60/63 45/64/63 13/58/63
f 46/60/64 47/59/64 40/62/64
f 44/65/65 48/61/65 13/58/65
f 50/66/66 51/67/66 17/68/66
f 52/69/67 53/70/67 18/71/67
usemtl lightbrown
f 1/13/68 66/72/68 67/73/68 51/67/68 50/66/68
f 18/71/55 58/54/55 55/53/55
f 18/71/57 56/56/57 60/55/57 58/54/57
f 17/68/56 54/52/56 57/49/56
f 17/68/54 18/71/54 55/53/54 54/52/54
f 17/68/69 51/67/69 67/73/69 69/74/69 52/69/69 18/71/69
f 12/2/70 37/75/70 38/76/70
f 37/75/71 2/51/71 39/77/71
f 4/7/72 37/75/72 39/77/72
f 16/11/73 37/75/73 4/7/73
f 2/51/74 37/75/74 12/2/74
f 1/13/75 38/76/75 49/78/75 43/79/75 66/72/75
f 5/10/76 38/76/76 16/11/76
f 16/11/77 38/76/77 37/75/77
f 38/76/78 1/13/78 12/2/78
f 39/77/79 14/5/79 3/4/79
f 15/8/80 39/77/80 3/4/80
f 39/77/81 15/8/81 4/7/81
f 39/77/82 2/51/82 14/5/82
f 40/62/83 41/80/83 68/81/83 69/74/83
f 47/59/84 48/61/84 49/78/84
f 41/80/85 49/78/85 38/76/85 5/10/85 68/81/85
f 43/79/86 49/78/86 44/65/86
f 49/78/87 41/80/87 47/59/87
f 44/65/88 49/78/88 48/61/88
f 44/65/89 42/63/89 43/79/89
f 40/62/90 47/59/90 41/80/90
f 56/56/91 18/71/91 53/70/91 5/10/91 62/21/91
f 57/49/41 63/48/41 59/57/41 17/68/41
f 59/57/92 64/14/92 1/13/92 50/66/92 17/68/92
f 67/73/93 66/72/93 43/79/93 42/63/93
f 69/74/94 67/73/94 42/63/94 40/62/94
f 69/74/95 68/81/95 5/10/95 53/70/95 52/69/95
