# Blender v2.93.1 OBJ File: 'player.blend'
# www.blender.org
mtllib ../materials/player.mtl
o Icosphere_Icosphere.001
v 1.423398 0.004017 0.552827
v -0.098168 0.004017 0.876688
v -1.004378 0.004021 -0.002333
v -0.098168 0.004017 -0.903539
v 1.423398 0.004017 -0.574684
v 0.628360 0.978215 0.848316
v -0.685960 0.978215 0.523392
v -0.685960 0.978215 -0.528059
v 0.628360 0.978215 -0.852983
v 1.358310 0.978211 -0.002333
v 0.265096 1.530995 -0.002333
v 0.610592 0.005258 0.835050
v 2.120148 0.067088 -0.002333
v -0.733316 0.005259 0.497664
v -0.733316 0.005259 -0.502330
v 0.610592 0.005258 -0.861901
v 1.662616 0.530995 0.306679
v 1.662616 0.530995 -0.311346
v 0.265096 0.530995 0.997667
v 1.037638 0.530995 0.806683
v -0.984904 0.530995 0.306679
v -0.507446 0.530995 0.806683
v -0.507446 0.530995 -0.811350
v -0.984904 0.530995 -0.311346
v 1.037638 0.530995 -0.811350
v 0.265096 0.530995 -1.002333
v 1.087248 1.056731 0.497664
v -0.080399 1.056733 0.806678
v -0.852932 1.056731 -0.002333
v -0.080399 1.056733 -0.811345
v 1.087248 1.056731 -0.502330
v 0.478616 1.381649 0.497662
v 0.873723 1.381647 -0.002333
v -0.293655 1.381649 0.312014
v -0.293916 1.381649 -0.311345
v 0.478616 1.381649 -0.502329
v 0.382343 0.039521 -0.002333
v 1.006191 0.018164 -0.002333
v -0.321648 0.063622 -0.002333
v 1.990064 0.143172 -0.083395
v 1.920771 0.004912 -0.173877
v 1.985870 0.148140 0.081648
v 1.918664 0.004854 0.178856
v 2.003046 0.022077 0.130219
v 2.060288 0.157749 0.065494
v 2.065706 0.158399 -0.066389
v 2.004166 0.022162 -0.128752
v 2.000009 0.006664 -0.002333
v 1.930108 0.007328 -0.002333
v 1.643945 0.482004 0.333037
v 1.700762 0.487817 0.288155
v 1.703048 0.483477 -0.292545
v 1.648703 0.479707 -0.342025
v 1.602246 0.619717 0.245375
v 1.602640 0.619137 -0.250443
v 1.545016 0.530995 -0.405430
v 1.565398 0.619827 0.338949
v 1.566272 0.619028 -0.343326
v 1.547863 0.530995 0.398486
v 1.556741 0.579553 -0.371174
v 1.509783 0.530995 -0.433618
v 1.526510 0.450806 -0.431185
v 1.556832 0.576431 0.368034
v 1.525139 0.434786 0.426664
v 1.516089 0.530995 0.423906
v 1.672094 0.004437 0.343767
v 1.850610 0.278942 0.175808
v 1.642984 0.004412 -0.375694
v 1.851944 0.277362 -0.179546
vt 0.090910 0.157461
vt 0.181819 0.157461
vt 0.136365 0.236191
vt 0.818182 0.157461
vt 0.909091 0.157461
vt 0.863636 0.236191
vt 0.636364 0.157461
vt 0.727273 0.157461
vt 0.681818 0.236191
vt 0.454546 0.157461
vt 0.545455 0.157461
vt 0.500000 0.236191
vt 0.296239 0.221817
vt 0.227273 0.236191
vt 0.272728 0.157461
vt 0.045455 0.236191
vt 0.772727 0.236191
vt 0.590909 0.236191
vt 0.430511 0.224211
vt 0.181819 0.314921
vt 0.272728 0.314921
vt 0.227273 0.393651
vt 0.000000 0.314921
vt 0.090910 0.314921
vt 0.045455 0.393651
vt 0.727273 0.314921
vt 0.818182 0.314921
vt 0.772727 0.393651
vt 0.545455 0.314921
vt 0.636364 0.314921
vt 0.590909 0.393651
vt 0.363637 0.314921
vt 0.454546 0.314921
vt 0.409092 0.393651
vt 0.500000 0.393651
vt 0.454546 0.472382
vt 0.681818 0.393651
vt 0.636364 0.472382
vt 0.863636 0.393651
vt 0.818182 0.472382
vt 0.909091 0.314921
vt 0.136365 0.393651
vt 0.090910 0.472382
vt 0.318182 0.393651
vt 0.272728 0.472382
vt 0.296869 0.236191
vt 0.310502 0.249494
vt 0.954545 0.236191
vt 1.000000 0.157461
vt 0.327200 0.251810
vt 0.400133 0.251708
vt 0.416703 0.249374
vt 0.431323 0.236191
vt 0.306100 0.242995
vt 0.420960 0.243463
vt 0.426198 0.236191
vt 0.301491 0.236191
vt 0.363637 0.157461
vt 0.382594 0.157461
vt 0.373059 0.173781
vt 0.371771 0.157461
vt 0.375561 0.178114
vt 0.353660 0.174742
vt 0.351284 0.178858
vt 0.338459 0.157461
vt 0.314635 0.230046
vt 0.320907 0.231471
vt 0.318182 0.236191
vt 0.406326 0.231401
vt 0.411735 0.231612
vt 0.409092 0.236191
vt 0.337433 0.202848
vt 0.561972 0.157461
vt 0.438338 0.157461
vt 0.701489 0.157461
vt 0.375613 0.157461
vt 0.333967 0.157461
vt 0.303479 0.157461
vt 0.389060 0.157461
vt 0.389704 0.202611
vt 0.425635 0.157461
vn 0.0571 -0.2606 0.9638
vn -0.8532 -0.2400 0.4631
vn -0.5163 -0.2581 -0.8166
vn 0.3277 -0.1769 -0.9281
vn 0.6227 0.0809 0.7783
vn -0.2396 -0.0573 0.9692
vn -0.9993 0.0369 0.0000
vn -0.2400 -0.0166 -0.9706
vn 0.6212 0.1060 -0.7765
vn 0.3653 0.6842 0.6312
vn -0.3780 0.6906 0.6166
vn -0.5981 0.7428 -0.3009
vn 0.0293 0.6619 -0.7490
vn 0.6241 0.7496 -0.2206
vn 0.2342 0.9544 -0.1851
vn 0.4414 0.8268 -0.3488
vn 0.3653 0.6842 -0.6312
vn -0.0781 0.9456 -0.3158
vn -0.1438 0.8006 -0.5817
vn -0.3766 0.6950 -0.6125
vn -0.2582 0.9661 0.0001
vn -0.5024 0.8646 0.0002
vn -0.5999 0.7412 0.3012
vn -0.0757 0.9461 0.3149
vn -0.1407 0.7986 0.5852
vn 0.0293 0.6619 0.7490
vn 0.2342 0.9544 0.1851
vn 0.4414 0.8268 0.3488
vn 0.6241 0.7496 0.2206
vn 0.5128 0.3985 -0.7604
vn -0.0188 0.3304 -0.9436
vn -0.2356 0.1913 -0.9528
vn -0.4337 0.3523 -0.8294
vn -0.8507 0.4082 -0.3312
vn -0.9699 0.2435 0.0000
vn -0.8507 0.4082 0.3312
vn -0.4337 0.3523 0.8294
vn -0.2356 0.1913 0.9528
vn -0.0188 0.3304 0.9436
vn 0.5128 0.3985 0.7604
vn 0.5800 0.3714 0.7250
vn 0.2380 0.1282 -0.9628
vn 0.2388 -0.1011 -0.9658
vn 0.0576 -0.2222 -0.9733
vn -0.7154 0.1472 -0.6831
vn -0.7200 -0.0948 -0.6875
vn -0.8532 -0.2400 -0.4631
vn -0.7154 0.1472 0.6831
vn -0.7200 -0.0948 0.6875
vn -0.4933 -0.2734 0.8258
vn 0.2380 0.1282 0.9628
vn 0.2376 -0.1411 0.9611
vn 0.3204 -0.2104 0.9236
vn 0.8268 0.5626 0.0000
vn 0.6967 0.6631 -0.2736
vn 0.6967 0.6631 0.2736
vn 0.5800 0.3714 -0.7250
vn 0.7415 -0.0281 -0.6703
vn 0.4473 -0.8894 -0.0943
vn -0.1966 0.9805 -0.0032
vn 0.1505 0.3732 0.9154
vn 0.7495 -0.0004 0.6620
vn 0.8466 0.5310 0.0374
vn 0.1347 0.3615 -0.9226
vn 0.4474 -0.8895 0.0932
vn 0.5961 0.1922 0.7795
vn 0.6404 0.2588 -0.7231
vn -0.1351 0.9903 -0.0332
vn 0.6184 0.0211 0.7856
vn 0.7620 0.6476 -0.0018
vn -0.0342 -0.9989 -0.0316
vn -0.0342 -0.9977 -0.0590
vn -0.0342 -0.9978 0.0575
vn -0.0006 -0.9992 0.0397
vn -0.0006 -0.9992 -0.0407
vn -0.0078 -0.9999 -0.0141
vn -0.0082 -0.9998 0.0188
vn -0.0342 -0.9989 0.0307
vn -0.0082 -0.9998 -0.0193
vn 0.0869 -0.9952 -0.0446
vn 0.0869 -0.9952 0.0446
vn 0.0470 -0.9959 0.0775
vn 0.0452 -0.9958 -0.0790
vn 0.6595 0.1513 -0.7363
vn -0.0094 -0.9925 -0.1220
vn -0.0124 -0.9998 0.0157
vn 0.1996 -0.9799 -0.0008
vn 0.2011 -0.9796 0.0029
vn -0.0094 -0.9932 0.1157
vn 0.4038 0.3763 0.8339
vn 0.3843 0.3630 -0.8489
vn 0.5638 0.1318 -0.8154
vn 0.5928 0.0942 0.7998
vn 0.6707 0.1745 0.7209
vn 0.6982 0.7159 -0.0038
vn 0.6708 0.0444 -0.7403
vn 0.6424 0.0550 0.7644
vn 0.6382 0.0549 0.7679
vn 0.7494 0.6621 0.0000
vn 0.8122 0.5833 -0.0012
vn 0.8105 0.5857 0.0004
vn -0.0121 -0.9998 -0.0164
vn -0.0117 -0.9998 -0.0171
vn 0.5826 0.1305 -0.8022
vn -0.0088 -0.9999 0.0146
vn -0.0117 -0.9998 0.0168
vn 0.5988 0.2853 -0.7484
vn 0.6146 0.1791 0.7682
vn 0.5498 0.1457 0.8225
vn 0.6950 0.7191 -0.0006
vn 0.6683 0.0772 -0.7399
vn 0.6512 0.0458 -0.7575
usemtl brown
s off
f 2/1/1 12/2/1 19/3/1
f 3/4/2 14/5/2 21/6/2
f 4/7/3 15/8/3 23/9/3
f 5/10/4 16/11/4 25/12/4
f 64/13/5 20/14/5 1/15/5
f 2/1/6 19/3/6 22/16/6
f 3/4/7 21/6/7 24/17/7
f 4/7/8 23/9/8 26/18/8
f 25/12/9 62/19/9 5/10/9
f 6/20/10 27/21/10 32/22/10
f 7/23/11 28/24/11 34/25/11
f 8/26/12 29/27/12 35/28/12
f 9/29/13 30/30/13 36/31/13
f 10/32/14 31/33/14 33/34/14
f 33/34/15 36/35/15 11/36/15
f 33/34/16 31/33/16 36/35/16
f 31/33/17 9/29/17 36/35/17
f 36/31/18 35/37/18 11/38/18
f 36/31/19 30/30/19 35/37/19
f 30/30/20 8/26/20 35/37/20
f 35/28/21 34/39/21 11/40/21
f 35/28/22 29/27/22 34/39/22
f 29/27/23 7/41/23 34/39/23
f 34/25/24 32/42/24 11/43/24
f 34/25/25 28/24/25 32/42/25
f 28/24/26 6/20/26 32/42/26
f 32/22/27 33/44/27 11/45/27
f 32/22/28 27/21/28 33/44/28
f 27/21/29 10/32/29 33/44/29
f 25/12/30 9/29/30 31/33/30
f 26/18/31 30/30/31 9/29/31
f 26/18/32 23/9/32 30/30/32
f 23/9/33 8/26/33 30/30/33
f 24/17/34 29/27/34 8/26/34
f 24/17/35 21/6/35 29/27/35
f 21/6/36 7/41/36 29/27/36
f 22/16/37 28/24/37 7/23/37
f 22/16/38 19/3/38 28/24/38
f 19/3/39 6/20/39 28/24/39
f 20/14/40 27/21/40 6/20/40
f 65/46/41 57/47/41 27/21/41
f 25/12/42 26/18/42 9/29/42
f 25/12/43 16/11/43 26/18/43
f 16/11/44 4/7/44 26/18/44
f 23/9/45 24/17/45 8/26/45
f 23/9/46 15/8/46 24/17/46
f 15/8/47 3/4/47 24/17/47
f 21/6/48 22/48/48 7/41/48
f 21/6/49 14/5/49 22/48/49
f 14/5/50 2/49/50 22/48/50
f 19/3/51 20/14/51 6/20/51
f 19/3/52 12/2/52 20/14/52
f 12/2/53 1/15/53 20/14/53
f 54/50/54 55/51/54 10/32/54
f 58/52/55 10/32/55 55/51/55
f 57/47/56 10/32/56 27/21/56
f 61/53/57 25/12/57 31/33/57
f 64/13/5 65/46/5 20/14/5
f 25/12/9 61/53/9 62/19/9
f 27/21/41 20/14/41 65/46/41
f 65/46/41 63/54/41 57/47/41
f 58/52/55 31/33/55 10/32/55
f 57/47/56 54/50/56 10/32/56
f 31/33/57 58/52/57 61/53/57
f 58/52/57 60/55/57 61/53/57
usemtl pink
f 62/19/9 61/53/9 56/56/9
f 61/53/57 60/55/57 56/56/57
f 63/54/41 65/46/41 59/57/41
f 65/46/5 64/13/5 59/57/5
usemtl black
f 13/58/58 47/59/58 46/60/58
f 13/58/59 48/61/59 47/59/59
f 40/62/60 45/63/60 46/60/60
f 42/64/61 44/65/61 45/63/61
f 45/63/62 44/65/62 13/58/62
f 46/60/63 45/63/63 13/58/63
f 46/60/64 47/59/64 40/62/64
f 44/65/65 48/61/65 13/58/65
f 50/66/66 51/67/66 17/68/66
f 52/69/67 53/70/67 18/71/67
f 40/62/68 42/64/68 45/63/68
usemtl lightbrown
f 67/72/69 51/67/69 50/66/69
f 18/71/55 58/52/55 55/51/55
f 18/71/57 60/55/57 58/52/57
f 17/68/56 54/50/56 57/47/56
f 17/68/54 55/51/54 54/50/54
f 52/69/70 18/71/70 51/67/70
f 12/2/71 37/73/71 38/74/71
f 37/73/72 2/49/72 39/75/72
f 4/7/73 37/73/73 39/75/73
f 16/11/74 37/73/74 4/7/74
f 2/49/75 37/73/75 12/2/75
f 49/76/76 43/77/76 66/78/76
f 5/10/77 38/74/77 16/11/77
f 16/11/78 38/74/78 37/73/78
f 38/74/79 1/15/79 12/2/79
f 39/75/80 14/5/80 3/4/80
f 15/8/81 39/75/81 3/4/81
f 39/75/82 15/8/82 4/7/82
f 39/75/83 2/49/83 14/5/83
f 41/79/84 69/80/84 40/62/84
f 47/59/85 48/61/85 49/76/85
f 38/74/86 5/10/86 68/81/86
f 43/77/87 49/76/87 44/65/87
f 49/76/88 41/79/88 47/59/88
f 44/65/89 49/76/89 48/61/89
f 44/65/90 42/64/90 43/77/90
f 40/62/91 47/59/91 41/79/91
f 53/70/92 5/10/92 62/19/92
f 63/54/41 17/68/41 57/47/41
f 64/13/93 1/15/93 50/66/93
f 67/72/94 43/77/94 42/64/94
f 69/80/95 42/64/95 40/62/95
f 68/81/96 5/10/96 53/70/96
f 50/66/97 1/15/97 66/78/97
f 66/78/98 67/72/98 50/66/98
f 18/71/57 56/56/57 60/55/57
f 17/68/54 18/71/54 55/51/54
f 18/71/99 17/68/99 51/67/99
f 51/67/100 67/72/100 52/69/100
f 67/72/101 69/80/101 52/69/101
f 66/78/102 1/15/102 38/74/102
f 38/74/103 49/76/103 66/78/103
f 41/79/104 68/81/104 69/80/104
f 68/81/105 41/79/105 49/76/105
f 49/76/106 38/74/106 68/81/106
f 62/19/92 56/56/92 53/70/92
f 56/56/107 18/71/107 53/70/107
f 63/54/41 59/57/41 17/68/41
f 17/68/108 59/57/108 50/66/108
f 59/57/93 64/13/93 50/66/93
f 67/72/109 66/78/109 43/77/109
f 69/80/110 67/72/110 42/64/110
f 52/69/111 69/80/111 53/70/111
f 69/80/112 68/81/112 53/70/112
